<?xml version="1.0" standalone="no"?>
<!DOCTYPE svg PUBLIC "-//W3C//DTD SVG 20010904//EN"
 "http://www.w3.org/TR/2001/REC-SVG-20010904/DTD/svg10.dtd">
<svg version="1.0" xmlns="http://www.w3.org/2000/svg"
 width="260.000000pt" height="260.000000pt" viewBox="0 0 260.000000 260.000000"
 preserveAspectRatio="xMidYMid meet">
<metadata>
Created by potrace 1.11, written by Peter Selinger 2001-2013
</metadata>
<g transform="translate(0.000000,260.000000) scale(0.100000,-0.100000)"
fill="#000000" stroke="none">
<path d="M1340 2502 c-11 -13 -20 -37 -20 -52 0 -14 -14 -55 -31 -90 -33 -68
-42 -68 -54 -1 -8 44 -25 68 -56 82 -15 6 -35 19 -45 30 -24 27 -39 24 -64
-11 -12 -17 -27 -29 -33 -27 -12 4 -99 -74 -212 -188 -48 -49 -103 -131 -111
-165 -1 -6 -31 -76 -44 -105 -27 -57 -36 -102 -26 -121 28 -49 51 -38 53 26 2
28 7 59 13 69 5 11 12 36 16 56 7 44 36 99 72 138 28 29 55 38 30 10 -34 -39
-100 -213 -80 -213 3 0 -4 -9 -16 -20 -17 -16 -22 -32 -22 -70 0 -28 -5 -50
-12 -52 -7 -3 -5 -13 8 -32 21 -33 28 -66 15 -66 -5 0 -22 15 -36 33 -15 17
-24 25 -20 17 5 -8 16 -24 26 -35 21 -24 15 -80 -7 -71 -9 3 -14 -1 -14 -12 0
-9 -6 -29 -14 -43 -12 -23 -36 -108 -42 -149 -9 -64 -15 -135 -15 -190 -1
-140 -7 -159 -68 -223 -30 -32 -77 -72 -103 -89 -53 -35 -65 -57 -46 -87 15
-24 50 -34 90 -25 23 5 29 3 26 -7 -3 -8 3 -30 13 -51 10 -20 24 -58 30 -85
14 -58 19 -300 6 -326 -9 -19 8 -51 23 -42 11 7 24 -13 44 -68 29 -78 76 -94
184 -62 58 18 62 18 63 8 2 -14 54 -31 64 -22 5 5 17 9 26 9 10 0 20 3 22 7 7
12 15 68 22 163 4 47 8 96 9 110 2 14 -7 57 -19 95 -12 39 -20 72 -18 74 2 3
12 -4 22 -16 10 -11 33 -25 50 -33 17 -7 31 -17 31 -23 0 -8 4 -7 11 0 9 9 24
3 62 -22 47 -32 54 -33 116 -29 126 8 126 8 252 124 70 64 91 79 85 60 -7 -27
-10 -52 -21 -205 -5 -72 -4 -108 6 -130 14 -33 16 -40 18 -55 0 -6 7 -10 14
-9 25 3 38 -1 32 -11 -3 -5 1 -10 9 -10 8 0 20 -8 26 -17 10 -16 11 -16 7 3
-2 11 1 21 7 22 6 0 28 3 49 6 41 6 40 8 40 -70 0 -47 25 -71 55 -55 9 5 20 9
25 10 4 1 8 1 10 2 1 1 14 2 30 3 28 3 35 -12 15 -32 -9 -9 -9 -12 0 -12 9 0
52 119 52 147 0 5 5 14 12 21 7 7 13 31 14 55 1 23 5 62 9 87 12 73 12 112 0
155 -10 34 -9 44 6 70 10 16 21 49 25 72 5 33 18 55 54 93 26 27 56 50 67 50
10 0 29 7 42 16 22 16 24 32 10 84 -2 8 6 19 19 25 32 14 28 27 -27 67 -32 24
-50 46 -54 65 -8 41 -46 86 -68 80 -14 -4 -29 13 -66 72 -26 42 -60 89 -75
105 -34 34 -32 47 8 58 28 7 29 10 26 50 -2 24 -8 48 -14 55 -6 7 -5 14 2 18
6 3 8 10 5 15 -5 9 -16 103 -19 165 -1 22 -5 45 -8 50 -4 6 -9 35 -12 65 -3
30 -8 68 -10 84 -2 17 4 42 15 60 23 38 24 56 4 82 -14 18 -14 17 -5 -8 10
-29 -1 -78 -18 -78 -4 0 -9 17 -10 38 -5 78 -14 87 -105 102 -45 7 -85 14 -89
16 -3 2 -1 18 5 35 10 26 9 32 -6 40 -9 6 -17 18 -17 27 0 13 -2 14 -9 3 -14
-22 -20 1 -11 49 11 62 2 106 -31 141 -24 26 -33 29 -63 23 -26 -4 -46 -1 -75
14 -22 12 -62 23 -90 25 -46 4 -54 2 -71 -21z"/>
<path d="M1930 1420 c0 -5 5 -10 11 -10 5 0 7 5 4 10 -3 6 -8 10 -11 10 -2 0
-4 -4 -4 -10z"/>
<path d="M852 142 c8 -63 48 -93 87 -65 28 19 28 37 0 23 -29 -16 -45 -7 -52
28 -8 40 -40 53 -35 14z"/>
</g>
</svg>
